<svg id="Layer_1" data-name="Layer 1" xmlns="http://www.w3.org/2000/svg" viewBox="0 0 569.94 127.2"><defs><style>.cls-1{fill:#fee713;}</style></defs><title>quiz-logo</title><path class="cls-1" d="M18.81,297.11h29q-2.06-2.7-4.52-5.56a71.37,71.37,0,0,1-4.62-6A44.06,44.06,0,0,1,35,279.18a19.31,19.31,0,0,1-1.84-6.82v-.54a10.55,10.55,0,0,1,.27-2.15,15.94,15.94,0,0,1,2-5.33A17.11,17.11,0,0,1,39,260.08a16.39,16.39,0,0,1,4.57-2.83,13.48,13.48,0,0,1,5.11-1H86.94L83.81,273.8H58.43q2.34,3.31,4.8,6.36t4.53,6.14a35.73,35.73,0,0,1,3.36,6.32,18.07,18.07,0,0,1,1.3,6.82,21.31,21.31,0,0,1-.27,3.32,14.33,14.33,0,0,1-1.7,4.75,15.76,15.76,0,0,1-3,3.76,13.18,13.18,0,0,1-4.08,2.51,13,13,0,0,1-4.8.9H15.67Z" transform="translate(-15.67 -256.22)"/><path class="cls-1" d="M93.4,256.22H153l-3.14,17.58H130.7l-7.18,40.88H102.28l7.17-40.88H90.26Z" transform="translate(-15.67 -256.22)"/><path class="cls-1" d="M186.28,305.71H164.59l-4.66,9H138.05l28.6-58.46h34.07l8,58.46h-21ZM172,290.11h12.28l-2.87-18.47Z" transform="translate(-15.67 -256.22)"/><path class="cls-1" d="M234.7,314.68H213.45l10.31-58.46h45.46a10.07,10.07,0,0,1,4.84,1.26,16,16,0,0,1,4.17,3.27,16.16,16.16,0,0,1,2.91,4.57,13.41,13.41,0,0,1,1.08,5.25c0,.36,0,.72-.05,1.07s-.07.72-.13,1.08l-1,5.2a25.3,25.3,0,0,1-1.88,6.1,22.66,22.66,0,0,1-3.54,5.47,25.32,25.32,0,0,1-5.25,4.48,27,27,0,0,1-7,3.14h23.85l-3.14,17.57H249.76a8,8,0,0,1-4.48-2.11,19.79,19.79,0,0,1-3.68-4.44,27,27,0,0,1-2.6-5.51,25.47,25.47,0,0,1-1.25-5.33Zm5.92-33.8h12.19a10.39,10.39,0,0,0,4.57-.81,3.82,3.82,0,0,0,2.06-2.69v-.54q0-3-5.38-3H241.87Z" transform="translate(-15.67 -256.22)"/><path class="cls-1" d="M358,256.22h21.87l-28.6,58.46H330.09l-2.24-23-10.31,23H296.38l-8-58.46h21l3.32,22.15,11.56-22.15h18.83l3.41,22.15Z" transform="translate(-15.67 -256.22)"/><path class="cls-1" d="M410.07,305.71h-21.7l-4.66,9H361.83l28.6-58.46H424.5l8,58.46h-21Zm-14.26-15.6h12.28l-2.87-18.47Z" transform="translate(-15.67 -256.22)"/><path class="cls-1" d="M458.48,314.68H437.23l10.31-58.46H493a10.07,10.07,0,0,1,4.84,1.26,16,16,0,0,1,4.17,3.27,16.16,16.16,0,0,1,2.91,4.57,13.41,13.41,0,0,1,1.08,5.25c0,.36,0,.72-.05,1.07s-.07.72-.13,1.08l-1,5.2A24.87,24.87,0,0,1,503,284a22.66,22.66,0,0,1-3.54,5.47,25.32,25.32,0,0,1-5.25,4.48,27,27,0,0,1-7,3.14H511l-3.14,17.57H473.54a8,8,0,0,1-4.48-2.11,19.79,19.79,0,0,1-3.68-4.44,27,27,0,0,1-2.6-5.51,25.47,25.47,0,0,1-1.25-5.33Zm5.92-33.8h12.19a10.39,10.39,0,0,0,4.57-.81,3.82,3.82,0,0,0,2.06-2.69v-.54q0-3-5.38-3H465.65Z" transform="translate(-15.67 -256.22)"/><path class="cls-1" d="M517.47,297.11h29q-2.06-2.7-4.53-5.56a73.43,73.43,0,0,1-4.61-6,44.06,44.06,0,0,1-3.72-6.41,19.31,19.31,0,0,1-1.84-6.82v-.54a10.55,10.55,0,0,1,.27-2.15,15.92,15.92,0,0,1,2-5.33,17.55,17.55,0,0,1,3.54-4.26,16.44,16.44,0,0,1,4.58-2.83,13.44,13.44,0,0,1,5.11-1h38.28l-3.14,17.58H557.1q2.32,3.31,4.8,6.36t4.52,6.14a35.15,35.15,0,0,1,3.37,6.32,18.26,18.26,0,0,1,1.3,6.82,21.31,21.31,0,0,1-.27,3.32,14.12,14.12,0,0,1-1.71,4.75,15.49,15.49,0,0,1-3,3.76,13.18,13.18,0,0,1-4.08,2.51,13,13,0,0,1-4.8.9H514.33Z" transform="translate(-15.67 -256.22)"/><path class="cls-1" d="M203,382.17a26.53,26.53,0,0,1-9.55-4,18.47,18.47,0,0,1-6-7,23.23,23.23,0,0,1-2.1-10.35c0-1.08,0-2.18.13-3.32a33.39,33.39,0,0,1,.49-3.59v-.18a38.92,38.92,0,0,1,4.89-13.49,29.8,29.8,0,0,1,8.65-9.14,36.4,36.4,0,0,1,11.93-5.2,61.08,61.08,0,0,1,14.7-1.66,58.84,58.84,0,0,1,12.64,1.25,28.28,28.28,0,0,1,9.68,3.95,17.92,17.92,0,0,1,6.19,6.95,22.6,22.6,0,0,1,2.15,10.26,32.67,32.67,0,0,1-.18,3.36q-.18,1.75-.54,3.72v.18a50.74,50.74,0,0,1-1.52,6.15,36.61,36.61,0,0,1-2.15,5.33h8.34L250,383H225.42l-.63-.09-4.48.36c-1.55.12-3.11.18-4.66.18A58.84,58.84,0,0,1,203,382.17Zm28.87-21.61a15.81,15.81,0,0,0,2.51-6.64v-.18a10.46,10.46,0,0,0,.36-3.49,8,8,0,0,0-2.6-6.37q-2.61-2.24-9.06-2.24a23.26,23.26,0,0,0-6.63.81,12,12,0,0,0-4.49,2.37,10.91,10.91,0,0,0-2.78,3.81,24,24,0,0,0-1.52,5.11v.18c-.12.72-.21,1.39-.27,2s-.09,1.24-.09,1.84a8.25,8.25,0,0,0,1.39,5c.93,1.26,2.65,2.15,5.16,2.69l2.06-11.3h1.34Z" transform="translate(-15.67 -256.22)"/><path class="cls-1" d="M285.94,357a19,19,0,0,0-.27,3.14,6.11,6.11,0,0,0,1.12,3.81c.75,1,2.23,1.48,4.44,1.48h6.9a8.43,8.43,0,0,0,3.59-.67,6.69,6.69,0,0,0,2.38-1.84,8.46,8.46,0,0,0,1.43-2.69,21.18,21.18,0,0,0,.76-3.23L312,324.52h21.34L326,366.39a14.77,14.77,0,0,1-2.65,5.82,27.59,27.59,0,0,1-5,5.34,30,30,0,0,1-6.06,3.9,13.5,13.5,0,0,1-5.78,1.52h-30a10.15,10.15,0,0,1-4.85-1.3,17.11,17.11,0,0,1-4.39-3.4,18.77,18.77,0,0,1-3.23-4.76,12.41,12.41,0,0,1-1.25-5.33c0-.3,0-.6,0-.9s.08-.59.14-.89l7.35-41.87h21.34Z" transform="translate(-15.67 -256.22)"/><path class="cls-1" d="M329.51,383l10.31-58.45h21.25L350.76,383Z" transform="translate(-15.67 -256.22)"/><path class="cls-1" d="M418.18,383H363.76l2.06-11.92a21.38,21.38,0,0,1,3.05-8,46.68,46.68,0,0,1,5.6-7.13,95,95,0,0,1,7.22-6.81q3.94-3.36,7.89-7H364.39l3.14-17.57h51.19L416.39,338c-.12.48-.22.93-.31,1.35a5.55,5.55,0,0,1-.5,1.34,31.93,31.93,0,0,1-4.21,6.73,79.12,79.12,0,0,1-5.7,6.32q-3.09,3.09-6.5,6l-6.63,5.69h28.78Z" transform="translate(-15.67 -256.22)"/></svg>